{
  "accessors": [
    {
      "bufferView": 2,
      "componentType": 5126,
      "count": 3735,
      "max": [
        50.62769317626953,
        12.28844928741455,
        165.64047241210938
      ],
      "min": [
        -50.39957809448242,
        -13.685596466064453,
        66.07128143310547
      ],
      "type": "VEC3"
    },
    {
      "bufferView": 2,
      "byteOffset": 44820,
      "componentType": 5126,
      "count": 3735,
      "max": [
        0.9991781115531921,
        0.9999926686286926,
        0.9985455870628357
      ],
      "min": [
        -0.9998446702957153,
        -0.9999966621398926,
        -0.996629536151886
      ],
      "type": "VEC3"
    },
    {
      "bufferView": 1,
      "componentType": 5126,
      "count": 3735,
      "max": [
        1.1709779500961304,
        1.0467690229415894
      ],
      "min": [
        -1.1709779500961304,
        -1.2944869995117188
      ],
      "type": "VEC2"
    },
    {
      "bufferView": 0,
      "componentType": 5125,
      "count": 20172,
      "type": "SCALAR"
    }
  ],
  "asset": {
    "extras": {
      "author": "ZahraAmini (https://sketchfab.com/ZahraAmini)",
      "license": "CC-BY-4.0 (http://creativecommons.org/licenses/by/4.0/)",
      "source": "https://sketchfab.com/3d-models/dress-9eb452d88fe04784a7af448d217b53dd",
      "title": "dress"
    },
    "generator": "Sketchfab-12.67.0",
    "version": "2.0"
  },
  "bufferViews": [
    {
      "buffer": 0,
      "byteLength": 80688,
      "name": "floatBufferViews",
      "target": 34963
    },
    {
      "buffer": 0,
      "byteLength": 29880,
      "byteOffset": 80688,
      "byteStride": 8,
      "name": "floatBufferViews",
      "target": 34962
    },
    {
      "buffer": 0,
      "byteLength": 89640,
      "byteOffset": 110568,
      "byteStride": 12,
      "name": "floatBufferViews",
      "target": 34962
    }
  ],
  "buffers": [
    {
      "byteLength": 200208,
      "uri": "scene.bin"
    }
  ],
  "images": [
    {
      "uri": "textures/FABRIC_1_FRONT_3983_metallicRoughness.png"
    }
  ],
  "materials": [
    {
      "doubleSided": true,
      "name": "FABRIC_1_FRONT_3983",
      "pbrMetallicRoughness": {
        "baseColorFactor": [
          0.00027579856109526075,
          0.0009041032476864873,
          0.0046469190529400605,
          1.0
        ],
        "metallicFactor": 0.5914868455453611,
        "metallicRoughnessTexture": {
          "index": 0
        },
        "roughnessFactor": 0.8833351573852823
      }
    }
  ],
  "meshes": [
    {
      "name": "Object_0",
      "primitives": [
        {
          "attributes": {
            "NORMAL": 1,
            "POSITION": 0,
            "TEXCOORD_0": 2
          },
          "indices": 3,
          "material": 0,
          "mode": 4
        }
      ]
    }
  ],
  "nodes": [
    {
      "children": [
        1
      ],
      "matrix": [
        1.0,
        0.0,
        0.0,
        0.0,
        0.0,
        2.220446049250313e-16,
        -1.0,
        0.0,
        0.0,
        1.0,
        2.220446049250313e-16,
        0.0,
        0.0,
        0.0,
        0.0,
        1.0
      ],
      "name": "Sketchfab_model"
    },
    {
      "children": [
        2
      ],
      "name": "dress.obj.cleaner.materialmerger.gles"
    },
    {
      "mesh": 0,
      "name": "Object_2"
    }
  ],
  "samplers": [
    {
      "magFilter": 9729,
      "minFilter": 9987,
      "wrapS": 10497,
      "wrapT": 10497
    }
  ],
  "scene": 0,
  "scenes": [
    {
      "name": "Sketchfab_Scene",
      "nodes": [
        0
      ]
    }
  ],
  "textures": [
    {
      "sampler": 0,
      "source": 0
    }
  ]
}
